<?xml version="1.0" encoding="UTF-8" standalone="no"?>
<!-- Created with Inkscape (http://www.inkscape.org/) -->

<svg
   version="1.1"
   id="svg1"
   width="476.83759"
   height="414.70981"
   viewBox="0 0 476.83759 414.70981"
   sodipodi:docname="logo.svg"
   inkscape:version="1.3.2 (091e20e, 2023-11-25, custom)"
   inkscape:export-filename="logo.png"
   inkscape:export-xdpi="96"
   inkscape:export-ydpi="96"
   xmlns:inkscape="http://www.inkscape.org/namespaces/inkscape"
   xmlns:sodipodi="http://sodipodi.sourceforge.net/DTD/sodipodi-0.dtd"
   xmlns="http://www.w3.org/2000/svg"
   xmlns:svg="http://www.w3.org/2000/svg">
  <defs
     id="defs1" />
  <sodipodi:namedview
     id="namedview1"
     pagecolor="#ffffff"
     bordercolor="#000000"
     borderopacity="0.25"
     inkscape:showpageshadow="2"
     inkscape:pageopacity="0.0"
     inkscape:pagecheckerboard="0"
     inkscape:deskcolor="#d1d1d1"
     showgrid="false"
     inkscape:zoom="1.502"
     inkscape:cx="190.41278"
     inkscape:cy="168.10919"
     inkscape:window-width="1920"
     inkscape:window-height="986"
     inkscape:window-x="-11"
     inkscape:window-y="1339"
     inkscape:window-maximized="1"
     inkscape:current-layer="g1" />
  <g
     inkscape:groupmode="layer"
     inkscape:label="Image"
     id="g1"
     transform="translate(-10.8105,-39.119038)">
    <path
       style="fill:#000000;stroke-width:1.38146"
       d="m 10.8105,435.86982 v -17.95904 h 27.368796 c 25.633561,0 27.560483,0.17858 30.392208,2.81675 4.383345,4.0837 4.085791,11.34317 -0.616547,15.04202 -3.365053,2.64696 -5.451741,2.86319 -27.629285,2.86319 H 16.336357 v 7.59806 c 0,6.67707 -0.334894,7.59805 -2.762928,7.59805 -2.621233,0 -2.762929,-0.92098 -2.762929,-17.95903 z m 53.652599,-3.97641 c 1.016232,-0.64415 1.637892,-2.65502 1.381464,-4.46861 l -0.46623,-3.29743 -24.520991,-0.37724 -24.520985,-0.37725 v 3.94603 c 0,2.17031 0.414439,4.36047 0.920981,4.867 1.353283,1.35329 45.036323,1.08261 47.205761,-0.2925 z m 20.442037,19.07225 c -3.444543,-2.70948 -3.639965,-3.52242 -3.639965,-15.14231 0,-18.34709 -0.810601,-17.91257 33.415639,-17.91257 26.35036,0 27.36879,0.1017 27.36879,2.73373 0,2.61906 -1.14432,2.74942 -27.28391,3.10829 l -27.28393,0.37457 -0.432895,4.48975 -0.432895,4.48977 h 27.71682 c 26.79583,0 27.71681,0.0918 27.71681,2.76293 0,2.67082 -0.92098,2.76292 -27.62929,2.76292 H 86.791029 v 3.99659 c 0,2.36999 0.889372,4.33789 2.185186,4.83513 1.201846,0.4612 13.635025,0.83853 27.629295,0.83853 24.52311,0 25.44409,0.10002 25.44409,2.76293 0,2.66782 -0.92098,2.76293 -26.75225,2.76293 -24.972729,0 -26.994378,-0.19046 -30.392214,-2.86319 z m 68.824124,-0.52768 c -3.0601,-3.06008 -3.39087,-4.51897 -3.39087,-14.95529 0,-10.30198 0.34904,-11.89235 3.19732,-14.56818 3.0274,-2.84408 4.46254,-3.00373 27.00136,-3.00373 23.43144,0 23.85709,0.0531 27.19487,3.39088 1.86498,1.86497 3.39088,4.04078 3.39088,4.83512 0,2.18098 -4.94955,1.73102 -6.90733,-0.62795 -1.39487,-1.68069 -5.81153,-2.07219 -23.37774,-2.07219 -15.00317,0 -22.16737,0.50937 -23.31575,1.65775 -0.95447,0.95447 -1.65776,5.52586 -1.65776,10.77543 0,5.24956 0.70329,9.82095 1.65776,10.77542 1.14767,1.14767 8.28879,1.65775 23.2086,1.65775 22.82025,0 24.86636,-0.53425 24.86636,-6.49288 0,-3.03308 -0.4705,-3.17737 -10.36099,-3.17737 -9.44,0 -10.36098,-0.24559 -10.36098,-2.76292 0,-2.56904 0.92098,-2.76293 13.12391,-2.76293 h 13.12392 v 6.97011 c 0,5.55841 -0.68678,7.65688 -3.39088,10.36098 -3.33565,3.33565 -3.77538,3.39087 -27.00134,3.39087 -23.22597,0 -23.6657,-0.0553 -27.00134,-3.39087 z m 65.68233,-11.17729 c 0,-13.62549 0.21943,-14.78759 3.39089,-17.95903 3.3399,-3.33991 3.75147,-3.39088 27.38846,-3.39088 23.29823,0 24.08515,0.0933 27.00135,3.19733 2.69712,2.87096 3.00374,4.70417 3.00374,17.95903 0,13.84073 -0.17238,14.76171 -2.76293,14.76171 -2.42804,0 -2.76293,-0.92098 -2.76293,-7.59805 v -7.59806 h -24.86636 -24.86636 v 7.59806 c 0,6.67707 -0.33489,7.59805 -2.76293,7.59805 -2.58825,0 -2.76293,-0.92098 -2.76293,-14.56816 z m 55.25858,-9.33117 c 0,-5.95863 -2.0461,-6.49288 -24.86636,-6.49288 -22.82025,0 -24.86636,0.53425 -24.86636,6.49288 v 3.17737 h 24.86636 24.86636 z m 15.1961,21.1364 c 0,-2.6627 0.92099,-2.76293 25.38795,-2.76293 21.4789,0 25.66752,-0.33688 27.20381,-2.18799 1.31568,-1.5853 1.41695,-2.82202 0.36767,-4.48975 -1.23062,-1.95597 -5.02521,-2.40555 -25.25733,-2.99251 -22.95504,-0.66594 -23.90376,-0.80772 -26.44636,-3.95206 -3.58727,-4.43625 -3.31257,-9.3128 0.75368,-13.37902 3.36278,-3.3628 3.60869,-3.39088 29.70148,-3.39088 25.38962,0 26.31061,0.0967 26.31061,2.76293 0,2.6627 -0.92099,2.76293 -25.38795,2.76293 -21.47889,0 -25.66752,0.33689 -27.20381,2.18799 -1.31678,1.58664 -1.4173,2.82063 -0.36568,4.48976 1.24325,1.97334 4.77246,2.356 24.73417,2.68186 21.64007,0.35327 23.50714,0.58972 26.44436,3.34911 4.20129,3.94688 4.10434,9.95779 -0.23051,14.29262 -3.36278,3.3628 -3.60869,3.39087 -29.70148,3.39087 -25.38962,0 -26.31061,-0.0967 -26.31061,-2.76293 z m 73.63586,1.10939 c -4.33653,-2.09519 -5.94411,-8.0552 -5.94411,-22.0375 0,-11.30605 0.20812,-12.22703 2.76293,-12.22703 2.56758,0 2.76293,0.92098 2.76293,13.02524 0,17.90765 -0.79013,17.36697 25.37947,17.36697 14.52073,0 21.55126,-0.51353 22.69549,-1.65775 1.06382,-1.06383 1.65776,-6.50823 1.65776,-15.19611 0,-12.61737 0.18794,-13.53835 2.76293,-13.53835 2.59436,0 2.76292,0.92098 2.76292,15.09584 0,14.66285 -0.10443,15.17797 -3.63996,17.95904 -3.35337,2.63775 -5.39284,2.85582 -25.90245,2.7697 -12.66896,-0.0532 -23.57053,-0.72548 -25.29791,-1.56005 z m 65.89203,-1.10939 c 0,-2.65836 0.92803,-2.76373 24.521,-2.78408 13.48654,-0.011 25.35245,-0.54819 26.36869,-1.19232 1.01623,-0.64416 1.63788,-2.65502 1.38146,-4.46861 l -0.46624,-3.29743 -23.69023,-0.69074 c -20.76984,-0.60558 -24.04808,-1.01514 -26.59319,-3.3224 -3.9241,-3.5574 -3.86368,-10.87101 0.12047,-14.58281 2.82053,-2.62771 4.76744,-2.81675 29.01075,-2.81675 24.96971,0 25.98732,0.10692 25.98732,2.73244 0,2.61177 -1.14397,2.74905 -25.90245,3.1083 l -25.90245,0.37585 -0.46623,3.29743 c -0.25643,1.81359 0.36523,3.82446 1.38146,4.46861 1.01624,0.64413 11.58799,1.18069 23.49277,1.19232 11.9048,0.011 22.69754,0.42503 23.98388,0.91864 3.57658,1.37246 6.1065,8.55973 4.56728,12.97517 -2.09931,6.02205 -6.08418,6.84931 -32.99293,6.84931 -23.88037,0 -24.80136,-0.10264 -24.80136,-2.76293 z M 227.70038,386.59546 c -1.89951,-0.30076 -8.40584,-1.50557 -14.45853,-2.67733 C 145.98953,370.89838 89.805964,313.0968 77.869326,244.64704 75.443723,230.73761 75.050972,199.17402 77.143103,186.28368 89.05902,112.86544 146.97068,54.236804 220.10233,41.554534 c 66.3982,-11.514574 137.07075,18.57086 173.67376,73.933256 13.19808,19.96222 20.16401,35.92256 26.19147,60.00985 4.18041,16.70611 4.54341,54.52307 0.69582,72.49303 -10.56085,49.32391 -40.14712,90.71782 -83.13659,116.3157 -25.98452,15.47239 -56.50806,23.37406 -88.94003,23.02407 -9.588,-0.10348 -18.98686,-0.43421 -20.88638,-0.73498 z m 42.13466,-14.32113 c 68.66886,-9.76297 121.96573,-59.50874 136.85581,-127.73731 1.73089,-7.93119 2.40011,-17.09777 2.37015,-32.46441 C 409.0233,192.74 408.60979,189.08615 404.80424,174.45942 388.19328,110.61475 337.44138,64.486524 272.70376,54.393744 c -16.0057,-2.49533 -48.74901,-0.73385 -63.65314,3.42432 -31.69683,8.84324 -54.83592,22.83061 -77.12016,46.618456 -18.58448,19.83846 -31.11903,42.62981 -38.42184,69.86174 -3.677361,13.71273 -5.066934,47.53736 -2.635944,64.16304 8.341654,57.04891 51.575854,107.98632 107.816964,127.02716 20.6936,7.00597 49.96206,9.7976 71.1454,6.78587 z M 228.39112,362.09666 C 179.40778,354.90541 137.89353,325.47213 115.91381,282.35112 104.00117,258.98024 99.21773,238.9652 99.28284,212.76333 c 0.0834,-33.5848 9.97243,-63.59973 29.50447,-89.55173 47.72889,-63.416846 135.72027,-79.135714 202.0603,-36.096286 34.48442,22.372466 58.66139,58.256976 66.15828,98.195016 3.15775,16.82224 2.12788,50.50267 -2.0064,65.61662 -10.60391,38.76535 -34.98269,71.09258 -69.03643,91.545 -28.31164,17.00375 -65.06804,24.39658 -97.57194,19.62471 z m 77.21419,-69.32139 c 1.71342,-4.4651 0.61794,-6.36055 -8.82389,-15.2675 -10.46602,-9.8731 -17.58432,-21.94198 -18.95092,-32.13072 -0.75054,-5.59566 -0.57544,-5.88717 9.43455,-15.70782 12.53434,-12.29724 25.16852,-19.00511 37.65919,-19.9944 l 8.45816,-0.66992 12.08781,18.18714 c 6.6483,10.00294 12.08781,18.77474 12.08781,19.4929 0,2.88637 -4.15034,1.07226 -4.96405,-2.16978 -1.41663,-5.64431 -6.63035,-8.65071 -16.84786,-9.71498 -11.99142,-1.24905 -13.67079,-2.24358 -15.67181,-9.28086 -0.91466,-3.21676 -2.10993,-6.36927 -2.65612,-7.00555 -1.52363,-1.77496 -10.78426,11.20748 -12.47597,17.49002 -2.04244,7.58501 -0.63411,15.34374 4.83718,26.64875 4.45581,9.20684 18.26256,27.03776 23.31565,30.11139 2.01148,1.2235 2.95733,0.87232 5.04529,-1.87324 l 2.56973,-3.37906 -8.75446,-9.59201 c -12.64773,-13.85778 -20.74711,-30.64142 -18.10696,-37.52152 0.68836,-1.79384 1.43851,-1.69886 5.33228,0.67517 2.49217,1.51948 7.01787,2.83856 10.05708,2.93129 10.78619,0.32913 13.54205,1.53741 14.82799,6.50123 2.59906,10.03251 17.6366,10.25283 21.75146,0.31868 1.58666,-3.8305 1.50898,-5.08447 -0.58815,-9.49481 -4.66474,-9.81011 -37.25859,-56.88635 -39.38602,-56.88635 -0.62387,0 -2.46277,1.0879 -4.08642,2.41756 l -2.95212,2.41757 3.40338,4.98 3.40336,4.98 -7.24396,1.62113 c -10.72833,2.40088 -22.60292,8.49129 -32.31624,16.5748 -4.74,3.94467 -8.61818,6.62512 -8.61818,5.95658 0,-0.66856 1.24493,-4.83401 2.7665,-9.25656 1.52157,-4.42254 2.60948,-8.18595 2.41757,-8.36312 -0.52129,-0.48124 -94.14966,-45.84434 -105.34023,-51.03751 -5.31863,-2.4682 -17.35832,-8.29397 -26.75483,-12.94613 -9.39653,-4.65218 -17.63351,-8.4585 -18.3044,-8.4585 -2.13977,0 -1.28874,19.65315 1.32368,30.56876 3.29965,13.78706 8.50296,22.48977 16.46586,27.53969 5.73473,3.63686 6.63615,4.96656 9.52656,14.05281 5.29465,16.64409 15.95053,28.06527 27.973,29.98197 3.72257,0.59348 5.48755,1.82763 7.04794,4.9282 6.7642,13.44079 13.71859,20.02328 21.15451,20.02328 2.68475,0 4.64764,1.56688 7.91849,6.32091 5.23328,7.6063 11.35825,11.60763 17.88728,11.68539 4.04898,0.0482 5.45317,0.95104 8.6365,5.55275 6.91002,9.98897 9.91203,10.96652 33.69572,10.9724 17.80461,0.004 21.04439,-0.32022 21.75806,-2.18003 z m -45.18206,-11.35968 c -4.71194,-4.91821 -4.67254,-6.572 0.19704,-8.26954 3.66133,-1.27635 4.22729,-0.9346 8.92776,5.39071 l 5.01861,6.75345 h -5.21564 c -3.91113,0 -6.1441,-0.9691 -8.92777,-3.87462 z m 23.68827,0.0755 c -5.78188,-6.26022 -11.59821,-15.72731 -15.06505,-24.52098 -2.82035,-7.15386 -3.2738,-10.70281 -3.3118,-25.91919 -0.036,-14.45058 -0.41776,-17.74145 -2.11621,-18.24607 -1.13971,-0.33863 -15.7487,-4.0992 -32.46441,-8.35684 -46.10152,-11.74245 -71.42813,-18.73912 -75.64107,-20.89641 -5.78019,-2.95981 -10.47015,-11.24662 -13.02308,-23.01085 -1.26673,-5.83727 -1.95445,-10.96191 -1.52825,-11.38811 0.72369,-0.72369 26.57753,11.442 99.67604,46.90325 27.90033,13.53488 30.14147,14.88975 29.36525,17.75248 -0.46221,1.70461 -1.54397,7.06507 -2.40391,11.91215 -3.10768,17.5166 3.25221,38.13554 16.20744,52.54485 3.47371,3.86361 5.75289,7.02475 5.06482,7.02475 -0.68807,0 -2.82996,-1.70955 -4.75977,-3.79903 z m -49.26301,-15.97585 c -1.65206,-1.7585 -3.00374,-3.85875 -3.00374,-4.66716 0,-0.80842 4.68784,-2.16709 10.41742,-3.01927 12.64861,-1.88123 17.21187,-1.95572 17.21187,-0.28092 0,0.69767 0.35033,2.1814 0.7785,3.2972 0.57421,1.4964 -1.48987,2.79478 -7.86629,4.94812 -10.99719,3.7138 -13.82988,3.66892 -17.53776,-0.27794 z M 210.25934,247.802 c -3.6402,-4.04859 -6.51224,-9.47369 -5.53352,-10.45242 0.4038,-0.40379 11.95486,-0.279 25.66901,0.27731 l 24.93484,1.01151 v 3.73773 c 0,3.59645 -0.40466,3.80129 -10.70635,5.41963 -5.88849,0.92505 -15.36879,2.0395 -21.06733,2.47658 -9.6541,0.74047 -10.56127,0.57193 -13.29665,-2.47031 z m -0.62271,-20.57347 c -12.59437,-0.54259 -24.09506,-1.63451 -25.55709,-2.42649 -5.10213,-2.76387 -10.43543,-9.64851 -13.7036,-17.68961 -1.81086,-4.45556 -3.0621,-8.33138 -2.78052,-8.61298 0.44095,-0.44094 13.41648,2.82336 77.0279,19.37827 10.24213,2.66551 10.70635,2.95945 10.70635,6.77938 v 3.99308 l -11.39708,-0.21756 c -6.2684,-0.11963 -21.70158,-0.66149 -34.29596,-1.20407 z"
       id="path1" />
  </g>
</svg>
