<?xml version="1.0" standalone="no"?>
<!DOCTYPE svg PUBLIC "-//W3C//DTD SVG 20010904//EN"
 "http://www.w3.org/TR/2001/REC-SVG-20010904/DTD/svg10.dtd">
<svg version="1.0" xmlns="http://www.w3.org/2000/svg"
 width="375.000000pt" height="375.000000pt" viewBox="0 0 375.000000 375.000000"
 preserveAspectRatio="xMidYMid meet">
<metadata>
Created by potrace 1.16, written by Peter Selinger 2001-2019
</metadata>
<g transform="translate(0.000000,375.000000) scale(0.100000,-0.100000)"
fill="#000000" stroke="none">
<path d="M1680 3525 c-350 -75 -620 -324 -727 -672 -25 -81 -27 -102 -27 -258
0 -157 2 -177 28 -259 102 -334 345 -572 678 -664 48 -13 102 -17 233 -17 146
0 182 3 253 23 334 91 602 374 677 715 13 61 16 111 13 235 -4 138 -8 167 -33
242 -106 324 -344 552 -670 642 -93 26 -332 33 -425 13z m424 -29 c159 -41
301 -122 421 -241 124 -123 199 -256 251 -445 28 -99 25 -347 -4 -455 -76
-276 -288 -518 -544 -623 -171 -69 -370 -89 -538 -54 -189 39 -352 126 -483
259 -162 165 -243 334 -267 564 -58 562 398 1049 958 1023 69 -3 149 -14 206
-28z"/>
<path d="M1780 3464 c-426 -52 -751 -395 -776 -818 -25 -416 260 -799 666
-896 104 -24 276 -27 380 -5 268 56 489 233 609 486 65 135 76 190 75 374 0
152 -2 165 -32 255 -53 160 -145 296 -276 407 -77 66 -236 147 -340 173 -79
20 -238 32 -306 24z m335 -89 c276 -92 467 -291 547 -570 32 -113 32 -306 0
-418 -57 -199 -179 -367 -343 -474 -132 -85 -244 -121 -404 -130 -392 -21
-733 231 -836 617 -28 104 -28 286 0 391 80 306 316 536 621 604 45 10 106 14
200 11 113 -3 148 -8 215 -31z"/>
<path d="M1232 2947 c7 -99 36 -174 85 -217 18 -17 37 -30 42 -30 4 0 14 -19
21 -42 29 -100 89 -171 153 -183 26 -5 38 -16 57 -51 26 -51 63 -84 92 -84 11
0 41 -22 67 -50 35 -37 54 -50 75 -50 21 0 38 -12 66 -42 l38 -43 121 -3 c118
-4 121 -3 130 19 7 20 0 30 -45 72 -50 46 -95 119 -109 178 -6 23 2 35 48 82
62 61 140 104 208 113 l45 6 69 -101 c45 -68 65 -105 58 -112 -7 -7 -14 0 -23
20 -13 32 -51 51 -102 51 -44 0 -66 17 -74 55 -3 19 -10 35 -14 35 -4 0 -20
-19 -36 -42 -60 -86 -32 -196 78 -313 54 -58 57 -59 71 -40 14 18 11 24 -36
75 -55 60 -97 139 -97 183 0 31 6 33 34 12 11 -8 39 -15 63 -15 23 0 47 -6 52
-12 6 -7 21 -26 34 -42 19 -23 29 -28 50 -22 33 8 57 32 57 58 0 11 -14 44
-31 72 -61 99 -182 266 -193 266 -28 0 -35 -23 -16 -50 l20 -28 -46 -11 c-61
-16 -119 -45 -173 -89 l-44 -36 7 34 c5 19 9 43 10 52 1 13 -62 48 -259 144
-373 181 -546 264 -553 264 -2 0 -2 -37 0 -83z m284 -108 c126 -61 285 -138
353 -170 122 -58 123 -59 115 -87 -5 -15 -9 -65 -9 -112 0 -94 21 -152 78
-217 16 -18 27 -36 24 -39 -8 -8 -66 72 -90 126 -16 34 -22 71 -25 150 l-4
106 -172 43 c-301 77 -420 111 -439 129 -11 9 -28 35 -37 57 -18 39 -36 125
-27 125 2 0 107 -50 233 -111z m161 -224 c120 -31 222 -60 227 -65 5 -5 6 -16
3 -24 -5 -14 -29 -15 -184 -9 -121 4 -187 10 -206 20 -31 15 -72 74 -83 117
-6 25 -4 28 10 23 9 -4 114 -32 233 -62z m126 -152 c95 -5 107 -8 107 -24 0
-20 -5 -22 -111 -38 -98 -16 -117 -14 -144 15 -14 15 -25 33 -25 40 0 16 20
17 173 7z"/>
<path d="M562 1388 l3 -113 33 -3 c32 -3 32 -3 32 42 l0 46 128 0 c116 0 131
2 147 20 10 11 18 34 18 50 0 16 -8 39 -18 50 -17 18 -30 20 -182 20 l-164 0
3 -112z m326 86 c14 -10 22 -26 22 -44 0 -50 -28 -60 -172 -60 l-128 0 0 -40
c0 -29 -4 -40 -15 -40 -12 0 -15 18 -15 100 l0 100 143 0 c113 0 147 -3 165
-16z"/>
<path d="M962 1477 c-18 -19 -22 -35 -22 -86 0 -34 4 -71 10 -81 16 -30 67
-40 211 -40 l139 0 0 35 0 35 -145 0 c-90 0 -145 4 -145 10 0 6 55 10 145 10
l145 0 0 30 0 30 -145 0 c-90 0 -145 4 -145 10 0 6 55 10 145 10 l145 0 0 30
0 30 -158 0 c-153 0 -159 -1 -180 -23z m326 -4 c-3 -16 -20 -19 -148 -23 -141
-5 -145 -6 -148 -27 -3 -23 -3 -23 147 -23 128 0 151 -2 151 -15 0 -13 -23
-15 -151 -15 -150 0 -150 0 -147 -22 3 -23 6 -23 151 -26 122 -2 147 -5 147
-17 0 -13 -24 -15 -147 -15 -180 0 -183 2 -183 101 0 96 6 99 188 99 131 0
143 -1 140 -17z"/>
<path d="M1340 1480 c-28 -28 -29 -147 -1 -181 18 -22 28 -24 126 -27 189 -7
215 8 215 116 0 59 -3 72 -23 90 -22 20 -33 22 -160 22 -124 0 -139 -2 -157
-20z m298 -6 c25 -17 29 -44 7 -44 -8 0 -15 5 -15 10 0 6 -50 10 -130 10
l-131 0 3 -62 3 -63 125 0 c121 0 125 1 128 22 3 20 -2 22 -49 25 -31 2 -54 8
-57 16 -3 9 15 12 67 12 l71 0 0 -39 c0 -65 -13 -71 -161 -71 -157 0 -169 7
-169 95 0 46 4 60 25 80 23 24 30 25 142 25 91 0 124 -4 141 -16z m-28 -44 c0
-5 -22 -10 -50 -10 -49 0 -50 -1 -50 -30 0 -29 1 -30 50 -30 28 0 50 -4 50
-10 0 -6 -45 -10 -115 -10 l-115 0 0 43 c0 24 3 47 7 50 11 11 223 8 223 -3z"/>
<path d="M1714 1479 c-16 -17 -19 -37 -19 -113 l0 -91 33 -3 c32 -3 32 -3 32
42 l0 46 114 0 115 0 3 -42 c3 -40 5 -43 33 -43 l30 0 3 86 c2 74 0 89 -18
112 l-21 27 -143 0 c-133 0 -144 -2 -162 -21z m304 -5 c20 -14 22 -24 22 -100
0 -68 -3 -84 -15 -84 -11 0 -15 11 -15 40 l0 40 -135 0 -135 0 0 -40 c0 -29
-4 -40 -15 -40 -12 0 -15 16 -15 80 0 116 5 120 163 120 95 0 128 -4 145 -16z"/>
<path d="M2092 1477 c-27 -29 -28 -71 -2 -97 18 -18 33 -20 144 -20 73 0 127
-4 131 -10 4 -6 -45 -10 -139 -10 l-146 0 0 -36 0 -35 156 3 c150 3 157 4 175
27 25 31 24 75 -3 101 -19 18 -35 20 -145 20 -75 0 -123 4 -123 10 0 6 53 10
140 10 l140 0 0 30 0 30 -153 0 c-148 0 -154 -1 -175 -23z m316 -4 c-3 -16
-19 -18 -146 -21 -131 -2 -142 -4 -142 -21 0 -27 18 -31 150 -31 111 0 120 -1
134 -22 21 -30 20 -44 -4 -68 -18 -18 -33 -20 -165 -20 -121 0 -145 2 -145 15
0 12 25 15 143 17 139 3 142 4 145 26 3 22 2 22 -124 22 -141 0 -164 8 -164
61 0 50 28 59 183 59 126 0 138 -2 135 -17z"/>
<path d="M2450 1407 c0 -126 5 -131 147 -135 193 -7 213 6 213 140 l0 88 -35
0 -35 0 0 -80 0 -80 -115 0 -115 0 0 80 0 80 -30 0 -30 0 0 -93z m40 15 c0
-102 2 -103 145 -100 l120 3 3 83 c2 64 6 82 17 82 12 0 15 -17 15 -82 0 -117
-1 -118 -162 -118 -163 0 -168 3 -168 120 0 64 3 80 15 80 12 0 15 -14 15 -68z"/>
<path d="M2840 1473 c-23 -30 -21 -65 7 -95 14 -15 35 -18 145 -18 79 0 128
-4 128 -10 0 -6 -55 -10 -145 -10 l-145 0 0 -36 0 -35 155 3 c143 3 156 5 176
25 30 30 30 80 0 105 -20 15 -42 18 -147 18 -76 0 -124 4 -124 10 0 6 55 10
145 10 l145 0 0 30 0 30 -159 0 -160 0 -21 -27z m320 -3 c0 -19 -7 -20 -139
-20 -141 0 -165 -6 -141 -35 10 -12 40 -15 136 -15 98 0 126 -3 138 -16 21
-20 20 -53 -1 -76 -14 -16 -33 -18 -160 -18 -120 0 -143 2 -143 15 0 13 22 15
134 15 105 0 136 3 146 15 23 28 0 35 -123 35 -139 0 -167 10 -167 60 0 51 27
60 182 60 131 0 138 -1 138 -20z"/>
</g>
</svg>
